<svg xmlns="http://www.w3.org/2000/svg" width="28.133" height="38.02" viewBox="0 0 28.133 38.02"><defs><style>.a{fill:#4f4f58;}</style></defs><g transform="translate(-66.569)"><g transform="translate(66.569)"><path class="a" d="M94.7,9.723a1.11,1.11,0,0,0-.344-.8c-.012-.014-.024-.029-.037-.043L86.464.45c-.013-.014-.027-.026-.04-.039A1.112,1.112,0,0,0,85.559,0c-.023,0-.045,0-.067,0s-.043,0-.065,0H67.986a1.419,1.419,0,0,0-1.417,1.417V36.6a1.419,1.419,0,0,0,1.417,1.417h25.3A1.419,1.419,0,0,0,94.7,36.6V9.843c0-.021,0-.041,0-.062S94.7,9.743,94.7,9.723Zm-8.028-5.78,4.351,4.665H86.674Zm5.8,31.847H68.8V2.229H84.445V9.665c0,.01,0,.019,0,.029s0,.019,0,.029a1.114,1.114,0,0,0,1.114,1.114h6.914Z" transform="translate(-66.569)"/></g><g transform="translate(82.953 13.257)"><path class="a" d="M288.327,178.53a1.115,1.115,0,0,0-1.115,1.115V193.27a1.114,1.114,0,1,0,2.229,0V179.645A1.114,1.114,0,0,0,288.327,178.53Z" transform="translate(-287.212 -178.53)"/></g><g transform="translate(79.13 19.927)"><path class="a" d="M236.841,268.358a1.115,1.115,0,0,0-1.115,1.115v6.955a1.114,1.114,0,0,0,2.229,0v-6.955A1.114,1.114,0,0,0,236.841,268.358Z" transform="translate(-235.726 -268.358)"/></g><g transform="translate(75.246 16.213)"><path class="a" d="M184.537,218.33a1.114,1.114,0,0,0-1.114,1.114v10.67a1.114,1.114,0,1,0,2.229,0v-10.67A1.114,1.114,0,0,0,184.537,218.33Z" transform="translate(-183.423 -218.33)"/></g><g transform="translate(71.308 22.136)"><path class="a" d="M131.507,298.1a1.114,1.114,0,0,0-1.114,1.115v4.726a1.114,1.114,0,0,0,2.229,0v-4.726A1.114,1.114,0,0,0,131.507,298.1Z" transform="translate(-130.393 -298.096)"/></g><g transform="translate(70.827 4.275)"><path class="a" d="M130.288,57.576h-5.266a1.114,1.114,0,1,0,0,2.229h5.266a1.114,1.114,0,1,0,0-2.229Z" transform="translate(-123.907 -57.576)"/></g><g transform="translate(70.827 7.924)"><path class="a" d="M134.228,106.713h-9.207a1.114,1.114,0,1,0,0,2.229h9.207a1.114,1.114,0,0,0,0-2.229Z" transform="translate(-123.907 -106.713)"/></g><g transform="translate(70.827 31.698)"><path class="a" d="M136.966,426.871H125.022a1.114,1.114,0,1,0,0,2.229h11.945a1.114,1.114,0,1,0,0-2.229Z" transform="translate(-123.907 -426.871)"/></g><g transform="translate(86.231 31.698)"><path class="a" d="M333.13,426.871h-.669a1.114,1.114,0,0,0,0,2.229h.669a1.114,1.114,0,1,0,0-2.229Z" transform="translate(-331.347 -426.871)"/></g><g transform="translate(86.899 16.213)"><path class="a" d="M341.466,218.33a1.115,1.115,0,0,0-1.115,1.114v10.67a1.114,1.114,0,0,0,2.229,0v-10.67A1.114,1.114,0,0,0,341.466,218.33Z" transform="translate(-340.351 -218.33)"/></g></g></svg>