<svg xmlns="http://www.w3.org/2000/svg" width="24.25" height="26.675" viewBox="0 0 24.25 26.675"><defs><style>.a{fill:#fff;}</style></defs><g transform="translate(-23.272)"><g transform="translate(23.272)"><path class="a" d="M46.309,19.4H45.1V9.7a9.7,9.7,0,1,0-19.4,0v9.7H24.485a1.213,1.213,0,0,0,0,2.425h6.063a4.85,4.85,0,0,0,9.7,0h6.063a1.212,1.212,0,1,0,0-2.425ZM35.4,24.25a2.427,2.427,0,0,1-2.425-2.425h4.85A2.427,2.427,0,0,1,35.4,24.25Zm7.275-4.85H28.122V9.7a7.275,7.275,0,1,1,14.55,0Z" transform="translate(-23.272)"/></g></g></svg>