<svg xmlns="http://www.w3.org/2000/svg" width="37.103" height="38.02" viewBox="0 0 37.103 38.02"><defs><style>.a{fill:#4f4f58;}</style></defs><g transform="translate(-6.169)"><g transform="translate(6.169 3.665)"><path class="a" d="M40.982,49.349H8.459a2.293,2.293,0,0,0-2.29,2.29V81.414a2.293,2.293,0,0,0,2.29,2.29H40.982a2.293,2.293,0,0,0,2.29-2.29V51.639A2.293,2.293,0,0,0,40.982,49.349Zm-.458,31.607H8.917V52.1H40.524V80.956Z" transform="translate(-6.169 -49.349)"/></g><g transform="translate(7.543 12.826)"><rect class="a" width="34.355" height="2.748"/></g><g transform="translate(14.414)"><path class="a" d="M118.579,0a1.374,1.374,0,0,0-1.374,1.374V8.7a1.374,1.374,0,0,0,2.748,0V1.374A1.374,1.374,0,0,0,118.579,0Z" transform="translate(-117.205)"/></g><g transform="translate(32.737)"><path class="a" d="M365.326,0a1.374,1.374,0,0,0-1.374,1.374V8.7a1.374,1.374,0,0,0,2.748,0V1.374A1.374,1.374,0,0,0,365.326,0Z" transform="translate(-363.952)"/></g><g transform="translate(18.537 27.484)"><path class="a" d="M184.175,370.12H174.1a1.374,1.374,0,0,0,0,2.748h10.077a1.374,1.374,0,0,0,0-2.748Z" transform="translate(-172.723 -370.12)"/></g><g transform="translate(18.537 21.071)"><path class="a" d="M184.175,283.759H174.1a1.374,1.374,0,1,0,0,2.748h10.077a1.374,1.374,0,1,0,0-2.748Z" transform="translate(-172.723 -283.759)"/></g></g></svg>