<svg xmlns="http://www.w3.org/2000/svg" width="26.979" height="26.815" viewBox="0 0 26.979 26.815"><defs><style>.a{fill:#28aa8e;}</style></defs><g transform="translate(0 0)"><g transform="translate(0 0)"><g transform="translate(0 0)"><path class="a" d="M24.689,16.056a1.056,1.056,0,0,0-1.372-.579,1.045,1.045,0,0,0-.582,1.364l1.241,3.052L20.29,18.278a1.06,1.06,0,0,0-.839,0,10.215,10.215,0,0,1-4.011.805c-5.642,0-9.432-4.391-9.432-8.492,0-4.682,4.231-8.492,9.432-8.492s9.432,3.809,9.432,8.492a8.491,8.491,0,0,1-.094,1.2,1.054,1.054,0,0,0,2.085.309,10.508,10.508,0,0,0,.117-1.509,10.1,10.1,0,0,0-3.414-7.518A12.019,12.019,0,0,0,15.44,0,12.019,12.019,0,0,0,7.313,3.069,10.159,10.159,0,0,0,3.941,9.685,8.456,8.456,0,0,0,0,16.735,8.094,8.094,0,0,0,1.616,21.59L.077,25.375A1.043,1.043,0,0,0,.321,26.52a1.059,1.059,0,0,0,1.159.206l4.438-1.945a10.085,10.085,0,0,0,3.515.622c.026,0,.052,0,.078,0a10.021,10.021,0,0,0,4.958-1.336,9.047,9.047,0,0,0,3.188-3.086,12.185,12.185,0,0,0,2.189-.6L25.5,22.85a1.059,1.059,0,0,0,1.159-.206A1.043,1.043,0,0,0,26.9,21.5ZM9.433,23.306l-.043,0a7.945,7.945,0,0,1-3.079-.626,1.059,1.059,0,0,0-.839,0L3,23.769l.8-1.957a1.043,1.043,0,0,0-.175-1.072,6.092,6.092,0,0,1-1.517-4,6.214,6.214,0,0,1,1.948-4.463,10.556,10.556,0,0,0,3.117,5.663,11.816,11.816,0,0,0,7.667,3.224A7.77,7.77,0,0,1,9.433,23.306Z" transform="translate(0 0)"/><circle class="a" cx="1" cy="1" r="1" transform="translate(14 9)"/><circle class="a" cx="1" cy="1" r="1" transform="translate(19 9)"/><circle class="a" cx="1" cy="1" r="1" transform="translate(10 9)"/></g></g></g></svg>