<svg xmlns="http://www.w3.org/2000/svg" width="38.02" height="38.02" viewBox="0 0 38.02 38.02"><defs><style>.a{fill:#28aa8e;}</style></defs><path class="a" d="M14.653,12.673H2.772A2.775,2.775,0,0,1,0,9.9V2.772A2.775,2.775,0,0,1,2.772,0H14.653a2.775,2.775,0,0,1,2.772,2.772V9.9A2.775,2.775,0,0,1,14.653,12.673ZM2.772,2.376a.4.4,0,0,0-.4.4V9.9a.4.4,0,0,0,.4.4H14.653a.4.4,0,0,0,.4-.4V2.772a.4.4,0,0,0-.4-.4Zm0,0"/><path class="a" d="M14.653,235.51H2.772A2.775,2.775,0,0,1,0,232.738V216.1a2.775,2.775,0,0,1,2.772-2.772H14.653a2.775,2.775,0,0,1,2.772,2.772v16.634A2.775,2.775,0,0,1,14.653,235.51Zm-11.881-19.8a.4.4,0,0,0-.4.4v16.634a.4.4,0,0,0,.4.4H14.653a.4.4,0,0,0,.4-.4V216.1a.4.4,0,0,0-.4-.4Zm0,0" transform="translate(0 -197.491)"/><path class="a" d="M291.986,354.005H280.1a2.775,2.775,0,0,1-2.772-2.772V344.1a2.775,2.775,0,0,1,2.772-2.772h11.881a2.775,2.775,0,0,1,2.772,2.772v7.129A2.775,2.775,0,0,1,291.986,354.005Zm-11.881-10.3a.4.4,0,0,0-.4.4v7.129a.4.4,0,0,0,.4.4h11.881a.4.4,0,0,0,.4-.4V344.1a.4.4,0,0,0-.4-.4Zm0,0" transform="translate(-256.738 -315.986)"/><path class="a" d="M291.986,22.178H280.1a2.775,2.775,0,0,1-2.772-2.772V2.772A2.775,2.775,0,0,1,280.1,0h11.881a2.775,2.775,0,0,1,2.772,2.772V19.406A2.775,2.775,0,0,1,291.986,22.178ZM280.1,2.376a.4.4,0,0,0-.4.4V19.406a.4.4,0,0,0,.4.4h11.881a.4.4,0,0,0,.4-.4V2.772a.4.4,0,0,0-.4-.4Zm0,0" transform="translate(-256.738)"/></svg>