<svg xmlns="http://www.w3.org/2000/svg" width="16.808" height="9.477" viewBox="0 0 16.808 9.477"><defs><style>.a{fill:#0f6452;}</style></defs><g transform="translate(0 0)"><path class="a" d="M16.738,58.956a8.693,8.693,0,0,1-3.319,3.528L15.2,64.268a.658.658,0,1,1-.929.932l-2.085-2.092a9.8,9.8,0,0,1-3.121.724v2.987a.657.657,0,1,1-1.313,0V63.831a9.8,9.8,0,0,1-3.121-.724L2.542,65.2a.658.658,0,1,1-.929-.932L3.39,62.484A8.694,8.694,0,0,1,.071,58.956a.657.657,0,1,1,1.172-.594A7.945,7.945,0,0,0,8.4,62.535a7.944,7.944,0,0,0,7.161-4.173.657.657,0,1,1,1.172.594Z" transform="translate(0 -58)"/></g></svg>