<svg xmlns="http://www.w3.org/2000/svg" width="14.958" height="14.958" viewBox="0 0 14.958 14.958"><defs><style>.a{fill:#1976d2;}.b{fill:#fafafa;}</style></defs><path class="a" d="M13.088,0H1.87A1.872,1.872,0,0,0,0,1.87V13.088a1.872,1.872,0,0,0,1.87,1.87H13.088a1.872,1.872,0,0,0,1.87-1.87V1.87A1.872,1.872,0,0,0,13.088,0Z" transform="translate(0)"/><path class="b" d="M199.011,100.674h-2.337V98.8c0-.516.419-.467.935-.467h.935V96h-1.87a2.8,2.8,0,0,0-2.8,2.8v1.87H192v2.337h1.87v5.142h2.8v-5.142h1.4Z" transform="translate(-186.391 -93.195)"/></svg>