<svg xmlns="http://www.w3.org/2000/svg" width="13.662" height="12.008" viewBox="0 0 13.662 12.008"><defs><style>.a{fill:#fd3018;}.b{fill:#e61e14;}</style></defs><g transform="translate(0 -31)"><path class="a" d="M6.831,43.008a.4.4,0,0,1-.263-.1c-.582-.509-1.136-.982-1.657-1.426C1.97,38.978,0,37.322,0,34.91A3.7,3.7,0,0,1,3.629,31a3.692,3.692,0,0,1,3.2,2.149A3.692,3.692,0,0,1,10.033,31a3.7,3.7,0,0,1,3.629,3.91c0,2.412-1.97,4.068-4.91,6.574-.521.444-1.075.916-1.657,1.426A.4.4,0,0,1,6.831,43.008Z"/><path class="b" d="M256.263,42.909c.582-.509,1.136-.982,1.657-1.426,2.941-2.506,4.91-4.162,4.91-6.574A3.571,3.571,0,0,0,256,33.149v9.859A.4.4,0,0,0,256.263,42.909Z" transform="translate(-249.169)"/></g></svg>