<svg xmlns="http://www.w3.org/2000/svg" xmlns:xlink="http://www.w3.org/1999/xlink" width="14.987" height="14.987" viewBox="0 0 14.987 14.987"><defs><style>.a{fill:url(#a);}.b{fill:url(#b);}.c{fill:url(#c);}</style><linearGradient id="a" x1="0.5" y1="0.008" x2="0.5" y2="0.998" gradientUnits="objectBoundingBox"><stop offset="0" stop-color="#e09b3d"/><stop offset="0.3" stop-color="#c74c4d"/><stop offset="0.6" stop-color="#c21975"/><stop offset="1" stop-color="#7024c4"/></linearGradient><linearGradient id="b" y1="-0.451" y2="1.462" xlink:href="#a"/><linearGradient id="c" y1="-1.396" y2="6.586" xlink:href="#a"/></defs><path class="a" d="M10.522,0H4.465A4.47,4.47,0,0,0,0,4.465v6.058a4.47,4.47,0,0,0,4.465,4.465h6.058a4.47,4.47,0,0,0,4.465-4.465V4.465A4.47,4.47,0,0,0,10.522,0Zm2.957,10.522a2.957,2.957,0,0,1-2.957,2.957H4.465a2.957,2.957,0,0,1-2.957-2.957V4.465A2.957,2.957,0,0,1,4.465,1.508h6.058a2.957,2.957,0,0,1,2.957,2.957v6.058Z"/><path class="b" d="M136.876,133a3.876,3.876,0,1,0,3.876,3.876A3.881,3.881,0,0,0,136.876,133Zm0,6.245a2.368,2.368,0,1,1,2.368-2.368A2.368,2.368,0,0,1,136.876,139.245Z" transform="translate(-129.383 -129.383)"/><ellipse class="c" cx="0.929" cy="0.929" rx="0.929" ry="0.929" transform="translate(10.448 2.718)"/></svg>