<svg xmlns="http://www.w3.org/2000/svg" width="22" height="21.927" viewBox="0 0 22 21.927"><defs><style>.a{fill:#0f6452;}</style></defs><g transform="translate(0 -0.85)"><g transform="translate(0 0.85)"><path class="a" d="M12.317,20.95H3.079a.975.975,0,0,1-1.026-.914V3.591a.975.975,0,0,1,1.026-.914h9.238a.974.974,0,0,0,1.026-.914A.974.974,0,0,0,12.317.85H3.079A2.928,2.928,0,0,0,0,3.591V20.036a2.928,2.928,0,0,0,3.079,2.741h9.238a.92.92,0,1,0,0-1.827Z" transform="translate(0 -0.85)"/></g><g transform="translate(5.495 4.629)"><path class="a" d="M186.3,113.619l-6.241-6.159a1.026,1.026,0,0,0-1.441,1.462l4.46,4.4H171.126a1.026,1.026,0,0,0,0,2.053h11.951l-4.46,4.4a1.026,1.026,0,1,0,1.441,1.462l6.241-6.159a1.026,1.026,0,0,0,0-1.462Z" transform="translate(-170.1 -107.165)"/></g></g></svg>