<svg xmlns="http://www.w3.org/2000/svg" width="18.41" height="14.958" viewBox="0 0 18.41 14.958"><defs><style>.a{fill:#03a9f4;}</style></defs><path class="a" d="M18.41,49.771a7.869,7.869,0,0,1-2.175.6,3.753,3.753,0,0,0,1.66-2.086,7.542,7.542,0,0,1-2.393.914,3.774,3.774,0,0,0-6.528,2.581,3.886,3.886,0,0,0,.087.861,10.683,10.683,0,0,1-7.779-3.948,3.775,3.775,0,0,0,1.16,5.044,3.727,3.727,0,0,1-1.705-.465v.041A3.791,3.791,0,0,0,3.76,57.017a3.767,3.767,0,0,1-.99.124,3.337,3.337,0,0,1-.715-.064,3.81,3.81,0,0,0,3.527,2.629A7.583,7.583,0,0,1,.9,61.316a7.07,7.07,0,0,1-.9-.052,10.625,10.625,0,0,0,5.79,1.694,10.668,10.668,0,0,0,10.742-10.74c0-.167-.006-.328-.014-.488A7.529,7.529,0,0,0,18.41,49.771Z" transform="translate(0 -48)"/></svg>