<svg xmlns="http://www.w3.org/2000/svg" width="24.251" height="27.044" viewBox="0 0 24.251 27.044"><defs><style>.a{fill:#fff;}</style></defs><g transform="translate(-7.209 -5.391)"><path class="a" d="M158.1,74.921a7.47,7.47,0,1,0-7.1-7.46A7.294,7.294,0,0,0,158.1,74.921Zm0-12.789a5.336,5.336,0,1,1-5.07,5.329A5.21,5.21,0,0,1,158.1,62.132Z" transform="translate(-138.763 -54.609)"/><path class="a" d="M104,302.518A7.16,7.16,0,0,0,98.575,300H86.157a7.16,7.16,0,0,0-5.426,2.518l-.491.571.366.663a13.334,13.334,0,0,0,23.519,0l.366-.663Zm-11.635,6.15a11.4,11.4,0,0,1-9.547-5.279,5.089,5.089,0,0,1,3.338-1.258H98.575a5.089,5.089,0,0,1,3.338,1.258,11.4,11.4,0,0,1-9.547,5.279Z" transform="translate(-73.032 -278.365)"/></g></svg>